<?xml version="1.0" encoding="UTF-8" standalone="no"?>
<!DOCTYPE svg PUBLIC "-//W3C//DTD SVG 1.1//EN"
 "http://www.w3.org/Graphics/SVG/1.1/DTD/svg11.dtd">
<!-- Generated by graphviz version 2.43.0 (0)
 -->
<!-- Title: %3 Pages: 1 -->
<svg width="919pt" height="299pt"
 viewBox="0.00 0.00 919.12 299.48" xmlns="http://www.w3.org/2000/svg" xmlns:xlink="http://www.w3.org/1999/xlink">
<g id="graph0" class="graph" transform="scale(1 1) rotate(0) translate(4 295.48)">
<title>%3</title>
<polygon fill="white" stroke="transparent" points="-4,4 -4,-295.48 915.12,-295.48 915.12,4 -4,4"/>
<!-- User -->
<g id="node1" class="node">
<title>User</title>
<ellipse fill="#f3f4f6" stroke="black" cx="101.12" cy="-264.61" rx="101.23" ry="26.74"/>
<text text-anchor="middle" x="101.12" y="-268.41" font-family="Times,serif" font-size="14.00">User</text>
<text text-anchor="middle" x="101.12" y="-253.41" font-family="Times,serif" font-size="14.00">(Search / Browse)</text>
</g>
<!-- Frontend -->
<g id="node2" class="node">
<title>Frontend</title>
<polygon fill="#dbeafe" stroke="black" points="263.62,-201.74 140.62,-201.74 140.62,-163.74 263.62,-163.74 263.62,-201.74"/>
<text text-anchor="middle" x="202.12" y="-186.54" font-family="Times,serif" font-size="14.00">Frontend</text>
<text text-anchor="middle" x="202.12" y="-171.54" font-family="Times,serif" font-size="14.00">(Nuxt 3 + Vue)</text>
</g>
<!-- User&#45;&gt;Frontend -->
<g id="edge1" class="edge">
<title>User&#45;&gt;Frontend</title>
<path fill="none" stroke="black" d="M132.24,-238.99C144.7,-229.14 159.01,-217.83 171.43,-208.01"/>
<polygon fill="black" stroke="black" points="173.6,-210.76 179.27,-201.81 169.25,-205.26 173.6,-210.76"/>
</g>
<!-- API -->
<g id="node3" class="node">
<title>API</title>
<polygon fill="#e0f2fe" stroke="black" points="279.12,-119.87 125.12,-119.87 125.12,-81.87 279.12,-81.87 279.12,-119.87"/>
<text text-anchor="middle" x="202.12" y="-104.67" font-family="Times,serif" font-size="14.00">API Layer</text>
<text text-anchor="middle" x="202.12" y="-89.67" font-family="Times,serif" font-size="14.00">(FastAPI / Express)</text>
</g>
<!-- Frontend&#45;&gt;API -->
<g id="edge2" class="edge">
<title>Frontend&#45;&gt;API</title>
<path fill="none" stroke="black" d="M202.12,-163.62C202.12,-153.71 202.12,-141.22 202.12,-130.07"/>
<polygon fill="black" stroke="black" points="205.62,-129.92 202.12,-119.92 198.62,-129.92 205.62,-129.92"/>
</g>
<!-- entries -->
<g id="node4" class="node">
<title>entries</title>
<polygon fill="#f9fafb" stroke="black" points="603.12,-38 600.12,-42 579.12,-42 576.12,-38 449.12,-38 449.12,0 603.12,0 603.12,-38"/>
<text text-anchor="middle" x="526.12" y="-22.8" font-family="Times,serif" font-size="14.00">entries.json</text>
<text text-anchor="middle" x="526.12" y="-7.8" font-family="Times,serif" font-size="14.00">(Transport Format)</text>
</g>
<!-- API&#45;&gt;entries -->
<g id="edge3" class="edge">
<title>API&#45;&gt;entries</title>
<path fill="none" stroke="black" d="M260.25,-81.79C269.54,-79.07 279.07,-76.38 288.12,-74 337.73,-60.93 393.66,-48.14 438.83,-38.29"/>
<polygon fill="black" stroke="black" points="439.85,-41.65 448.88,-36.11 438.37,-34.81 439.85,-41.65"/>
</g>
<!-- sqlite -->
<g id="node5" class="node">
<title>sqlite</title>
<path fill="#f9fafb" stroke="black" d="M276.62,-33.73C276.62,-35.53 243.22,-37 202.12,-37 161.01,-37 127.62,-35.53 127.62,-33.73 127.62,-33.73 127.62,-4.27 127.62,-4.27 127.62,-2.47 161.01,-1 202.12,-1 243.22,-1 276.62,-2.47 276.62,-4.27 276.62,-4.27 276.62,-33.73 276.62,-33.73"/>
<path fill="none" stroke="black" d="M276.62,-33.73C276.62,-31.92 243.22,-30.45 202.12,-30.45 161.01,-30.45 127.62,-31.92 127.62,-33.73"/>
<text text-anchor="middle" x="202.12" y="-15.3" font-family="Times,serif" font-size="14.00">SQLite / File Store</text>
</g>
<!-- API&#45;&gt;sqlite -->
<g id="edge4" class="edge">
<title>API&#45;&gt;sqlite</title>
<path fill="none" stroke="black" d="M202.12,-81.75C202.12,-71.63 202.12,-58.82 202.12,-47.5"/>
<polygon fill="black" stroke="black" points="205.62,-47.23 202.12,-37.23 198.62,-47.23 205.62,-47.23"/>
</g>
<!-- Crawler -->
<g id="node6" class="node">
<title>Crawler</title>
<polygon fill="#e5e7eb" stroke="black" points="481.62,-201.74 342.62,-201.74 342.62,-163.74 481.62,-163.74 481.62,-201.74"/>
<text text-anchor="middle" x="412.12" y="-186.54" font-family="Times,serif" font-size="14.00">Crawler Modules</text>
<text text-anchor="middle" x="412.12" y="-171.54" font-family="Times,serif" font-size="14.00">(Per Domain)</text>
</g>
<!-- Mapper -->
<g id="node7" class="node">
<title>Mapper</title>
<ellipse fill="#f3f4f6" stroke="black" cx="412.12" cy="-100.87" rx="114.6" ry="26.74"/>
<text text-anchor="middle" x="412.12" y="-104.67" font-family="Times,serif" font-size="14.00">Mapping Logic</text>
<text text-anchor="middle" x="412.12" y="-89.67" font-family="Times,serif" font-size="14.00">(Normalize → Entry)</text>
</g>
<!-- Crawler&#45;&gt;Mapper -->
<g id="edge5" class="edge">
<title>Crawler&#45;&gt;Mapper</title>
<path fill="none" stroke="black" d="M412.12,-163.62C412.12,-156.01 412.12,-146.88 412.12,-138"/>
<polygon fill="black" stroke="black" points="415.62,-137.8 412.12,-127.8 408.62,-137.8 415.62,-137.8"/>
</g>
<!-- Mapper&#45;&gt;entries -->
<g id="edge6" class="edge">
<title>Mapper&#45;&gt;entries</title>
<path fill="none" stroke="black" d="M447.25,-75.25C461.44,-65.31 477.77,-53.87 491.87,-43.99"/>
<polygon fill="black" stroke="black" points="494.15,-46.67 500.33,-38.07 490.13,-40.94 494.15,-46.67"/>
</g>
<!-- Editor -->
<g id="node8" class="node">
<title>Editor</title>
<polygon fill="#fef9c3" stroke="black" points="735.12,-119.87 545.12,-119.87 545.12,-81.87 735.12,-81.87 735.12,-119.87"/>
<text text-anchor="middle" x="640.12" y="-104.67" font-family="Times,serif" font-size="14.00">Editorial Interface</text>
<text text-anchor="middle" x="640.12" y="-89.67" font-family="Times,serif" font-size="14.00">(Flags / Plain Language)</text>
</g>
<!-- Editor&#45;&gt;entries -->
<g id="edge7" class="edge">
<title>Editor&#45;&gt;entries</title>
<path fill="none" stroke="black" d="M614.25,-81.75C598.21,-70.51 577.44,-55.96 560.09,-43.8"/>
<polygon fill="black" stroke="black" points="562.08,-40.92 551.88,-38.05 558.06,-46.66 562.08,-40.92"/>
</g>
<!-- LLM -->
<g id="node9" class="node">
<title>LLM</title>
<polygon fill="#fef3c7" stroke="black" points="911.12,-119.87 753.12,-119.87 753.12,-81.87 911.12,-81.87 911.12,-119.87"/>
<text text-anchor="middle" x="832.12" y="-104.67" font-family="Times,serif" font-size="14.00">Enrichment CLI</text>
<text text-anchor="middle" x="832.12" y="-89.67" font-family="Times,serif" font-size="14.00">(Embeddings, Tags)</text>
</g>
<!-- LLM&#45;&gt;entries -->
<g id="edge8" class="edge">
<title>LLM&#45;&gt;entries</title>
<path fill="none" stroke="black" d="M772.1,-81.85C762.75,-79.15 753.19,-76.46 744.12,-74 700.74,-62.26 652.24,-50.14 612.02,-40.37"/>
<polygon fill="black" stroke="black" points="612.79,-36.96 602.24,-38.01 611.14,-43.76 612.79,-36.96"/>
</g>
<!-- Docs -->
<g id="node10" class="node">
<title>Docs</title>
<polygon fill="#ede9fe" stroke="black" points="379.62,-283.61 220.62,-283.61 220.62,-245.61 385.62,-245.61 385.62,-277.61 379.62,-283.61"/>
<polyline fill="none" stroke="black" points="379.62,-283.61 379.62,-277.61 "/>
<polyline fill="none" stroke="black" points="385.62,-277.61 379.62,-277.61 "/>
<text text-anchor="middle" x="303.12" y="-268.41" font-family="Times,serif" font-size="14.00">Docs &amp; Metadata</text>
<text text-anchor="middle" x="303.12" y="-253.41" font-family="Times,serif" font-size="14.00">(structure, planning)</text>
</g>
<!-- Docs&#45;&gt;Frontend -->
<g id="edge9" class="edge">
<title>Docs&#45;&gt;Frontend</title>
<path fill="none" stroke="black" d="M280.2,-245.49C266.25,-234.46 248.26,-220.23 233.06,-208.21"/>
<polygon fill="black" stroke="black" points="234.96,-205.25 224.94,-201.79 230.62,-210.74 234.96,-205.25"/>
</g>
</g>
</svg>
