<?xml version="1.0" encoding="UTF-8" standalone="no"?>
<!DOCTYPE svg PUBLIC "-//W3C//DTD SVG 1.1//EN"
 "http://www.w3.org/Graphics/SVG/1.1/DTD/svg11.dtd">
<!-- Generated by graphviz version 2.43.0 (0)
 -->
<!-- Title: %3 Pages: 1 -->
<svg width="1840pt" height="103pt"
 viewBox="0.00 0.00 1840.09 103.00" xmlns="http://www.w3.org/2000/svg" xmlns:xlink="http://www.w3.org/1999/xlink">
<g id="graph0" class="graph" transform="scale(1 1) rotate(0) translate(4 99)">
<title>%3</title>
<polygon fill="white" stroke="transparent" points="-4,4 -4,-99 1836.09,-99 1836.09,4 -4,4"/>
<!-- Sources -->
<g id="node1" class="node">
<title>Sources</title>
<polygon fill="#f3f4f6" stroke="#111827" points="342.19,-85 69.97,-85 -0.06,-9 272.16,-9 342.19,-85"/>
<text text-anchor="middle" x="171.06" y="-50.8" font-family="Times,serif" font-size="14.00">Web Sources</text>
<text text-anchor="middle" x="171.06" y="-35.8" font-family="Times,serif" font-size="14.00">(e.g. Jobcenter, CCC)</text>
</g>
<!-- Crawler -->
<g id="node2" class="node">
<title>Crawler</title>
<polygon fill="#e5e7eb" stroke="black" points="572.13,-65 379.13,-65 379.13,-29 572.13,-29 572.13,-65"/>
<text text-anchor="middle" x="475.63" y="-43.3" font-family="Times,serif" font-size="14.00">Domain&#45;Specific Crawler</text>
</g>
<!-- Sources&#45;&gt;Crawler -->
<g id="edge1" class="edge">
<title>Sources&#45;&gt;Crawler</title>
<path fill="none" stroke="black" d="M307.42,-47C327.92,-47 348.81,-47 368.57,-47"/>
<polygon fill="black" stroke="black" points="368.79,-50.5 378.79,-47 368.79,-43.5 368.79,-50.5"/>
</g>
<!-- RawModel -->
<g id="node3" class="node">
<title>RawModel</title>
<polygon fill="#e5e7eb" stroke="black" points="713.13,-66 609.13,-66 609.13,-28 713.13,-28 713.13,-66"/>
<text text-anchor="middle" x="661.13" y="-50.8" font-family="Times,serif" font-size="14.00">Parsed Data</text>
<text text-anchor="middle" x="661.13" y="-35.8" font-family="Times,serif" font-size="14.00">(RawEntry)</text>
</g>
<!-- Crawler&#45;&gt;RawModel -->
<g id="edge2" class="edge">
<title>Crawler&#45;&gt;RawModel</title>
<path fill="none" stroke="black" d="M572.14,-47C581.18,-47 590.17,-47 598.76,-47"/>
<polygon fill="black" stroke="black" points="599.02,-50.5 609.02,-47 599.02,-43.5 599.02,-50.5"/>
</g>
<!-- Mapper -->
<g id="node4" class="node">
<title>Mapper</title>
<ellipse fill="#e5e7eb" stroke="black" cx="857.61" cy="-47" rx="107.46" ry="26.74"/>
<text text-anchor="middle" x="857.61" y="-50.8" font-family="Times,serif" font-size="14.00">Mapping Layer</text>
<text text-anchor="middle" x="857.61" y="-35.8" font-family="Times,serif" font-size="14.00">Normalize &amp; Clean</text>
</g>
<!-- RawModel&#45;&gt;Mapper -->
<g id="edge3" class="edge">
<title>RawModel&#45;&gt;Mapper</title>
<path fill="none" stroke="black" d="M713.23,-47C721.66,-47 730.69,-47 739.97,-47"/>
<polygon fill="black" stroke="black" points="740.11,-50.5 750.11,-47 740.11,-43.5 740.11,-50.5"/>
</g>
<!-- ResultModel -->
<g id="node5" class="node">
<title>ResultModel</title>
<polygon fill="#e5e7eb" stroke="black" points="1142.09,-66 1002.09,-66 1002.09,-28 1142.09,-28 1142.09,-66"/>
<text text-anchor="middle" x="1072.09" y="-50.8" font-family="Times,serif" font-size="14.00">Structured Entry</text>
<text text-anchor="middle" x="1072.09" y="-35.8" font-family="Times,serif" font-size="14.00">(MappedEntry)</text>
</g>
<!-- Mapper&#45;&gt;ResultModel -->
<g id="edge4" class="edge">
<title>Mapper&#45;&gt;ResultModel</title>
<path fill="none" stroke="black" d="M965.16,-47C974.17,-47 983.17,-47 991.91,-47"/>
<polygon fill="black" stroke="black" points="992.03,-50.5 1002.03,-47 992.03,-43.5 992.03,-50.5"/>
</g>
<!-- Editorial -->
<g id="node6" class="node">
<title>Editorial</title>
<polygon fill="#f3f4f6" stroke="black" points="1364.09,-95 1361.09,-99 1340.09,-99 1337.09,-95 1179.09,-95 1179.09,-57 1364.09,-57 1364.09,-95"/>
<text text-anchor="middle" x="1271.59" y="-79.8" font-family="Times,serif" font-size="14.00">Editorial Review</text>
<text text-anchor="middle" x="1271.59" y="-64.8" font-family="Times,serif" font-size="14.00">(Plain Language, Flags)</text>
</g>
<!-- ResultModel&#45;&gt;Editorial -->
<g id="edge5" class="edge">
<title>ResultModel&#45;&gt;Editorial</title>
<path fill="none" stroke="black" d="M1142.16,-57.14C1150.81,-58.41 1159.8,-59.73 1168.81,-61.06"/>
<polygon fill="black" stroke="black" points="1168.59,-64.56 1178.99,-62.55 1169.6,-57.63 1168.59,-64.56"/>
</g>
<!-- LLM -->
<g id="node7" class="node">
<title>LLM</title>
<polygon fill="#fef3c7" stroke="black" points="1350.59,-39 1192.59,-39 1192.59,-1 1350.59,-1 1350.59,-39"/>
<text text-anchor="middle" x="1271.59" y="-23.8" font-family="Times,serif" font-size="14.00">LLM Enrichment</text>
<text text-anchor="middle" x="1271.59" y="-8.8" font-family="Times,serif" font-size="14.00">(Embeddings, Tags)</text>
</g>
<!-- ResultModel&#45;&gt;LLM -->
<g id="edge6" class="edge">
<title>ResultModel&#45;&gt;LLM</title>
<path fill="none" stroke="black" d="M1142.16,-37.56C1155.11,-35.79 1168.8,-33.92 1182.23,-32.08"/>
<polygon fill="black" stroke="black" points="1183,-35.51 1192.43,-30.68 1182.05,-28.57 1183,-35.51"/>
</g>
<!-- Transport -->
<g id="node8" class="node">
<title>Transport</title>
<polygon fill="#f9fafb" stroke="black" points="1643.09,-66 1506.09,-66 1506.09,-28 1649.09,-28 1649.09,-60 1643.09,-66"/>
<polyline fill="none" stroke="black" points="1643.09,-66 1643.09,-60 "/>
<polyline fill="none" stroke="black" points="1649.09,-60 1643.09,-60 "/>
<text text-anchor="middle" x="1577.59" y="-50.8" font-family="Times,serif" font-size="14.00">Transport Format</text>
<text text-anchor="middle" x="1577.59" y="-35.8" font-family="Times,serif" font-size="14.00">(entries.json)</text>
</g>
<!-- Editorial&#45;&gt;Transport -->
<g id="edge7" class="edge">
<title>Editorial&#45;&gt;Transport</title>
<path fill="none" stroke="black" d="M1364.21,-67.26C1406.11,-63.26 1455.33,-58.57 1495.82,-54.7"/>
<polygon fill="black" stroke="black" points="1496.3,-58.18 1505.92,-53.74 1495.64,-51.21 1496.3,-58.18"/>
<text text-anchor="middle" x="1435.09" y="-66.8" font-family="Times,serif" font-size="9.00">Approved &amp; Simplified</text>
</g>
<!-- LLM&#45;&gt;Transport -->
<g id="edge8" class="edge">
<title>LLM&#45;&gt;Transport</title>
<path fill="none" stroke="black" d="M1350.67,-26.18C1391.61,-29.51 1442.57,-33.79 1488.09,-38 1490.65,-38.24 1493.24,-38.48 1495.87,-38.73"/>
<polygon fill="black" stroke="black" points="1495.78,-42.24 1506.07,-39.71 1496.45,-35.27 1495.78,-42.24"/>
<text text-anchor="middle" x="1435.09" y="-40.8" font-family="Times,serif" font-size="9.00">Optional Enrichment</text>
</g>
<!-- Frontend -->
<g id="node9" class="node">
<title>Frontend</title>
<polygon fill="#e0f2fe" stroke="black" points="1832.09,-94 1686.09,-94 1686.09,-56 1832.09,-56 1832.09,-94"/>
<text text-anchor="middle" x="1759.09" y="-78.8" font-family="Times,serif" font-size="14.00">Frontend UI</text>
<text text-anchor="middle" x="1759.09" y="-63.8" font-family="Times,serif" font-size="14.00">(Nuxt 3 + Search)</text>
</g>
<!-- Transport&#45;&gt;Frontend -->
<g id="edge9" class="edge">
<title>Transport&#45;&gt;Frontend</title>
<path fill="none" stroke="black" d="M1649.27,-58.03C1658.04,-59.39 1667.06,-60.8 1675.98,-62.19"/>
<polygon fill="black" stroke="black" points="1675.57,-65.67 1685.99,-63.75 1676.65,-58.75 1675.57,-65.67"/>
</g>
<!-- API -->
<g id="node10" class="node">
<title>API</title>
<polygon fill="#e0f2fe" stroke="black" points="1824.59,-38 1693.59,-38 1693.59,0 1824.59,0 1824.59,-38"/>
<text text-anchor="middle" x="1759.09" y="-22.8" font-family="Times,serif" font-size="14.00">Public API</text>
<text text-anchor="middle" x="1759.09" y="-7.8" font-family="Times,serif" font-size="14.00">(Filter + Query)</text>
</g>
<!-- Transport&#45;&gt;API -->
<g id="edge10" class="edge">
<title>Transport&#45;&gt;API</title>
<path fill="none" stroke="black" d="M1649.27,-35.97C1660.39,-34.24 1671.92,-32.44 1683.13,-30.69"/>
<polygon fill="black" stroke="black" points="1683.97,-34.1 1693.31,-29.1 1682.89,-27.19 1683.97,-34.1"/>
</g>
</g>
</svg>
